<svg version="1.1" preserveAspectRatio="none" xmlns="http://www.w3.org/2000/svg" width="500" height="500" viewBox="0 0 500 500"><rect width="100%" height="100%" fill="#FFFFFF" fill-opacity="1"/><svg viewBox="154.7564 169.0196 424.1279 100" width="333" height="78.51405201119756" x="83.5px" y="210.743px" xmlns="http://www.w3.org/2000/svg" xmlns:xlink="http://www.w3.org/1999/xlink" preserveAspectRatio="none"><defs></defs><style>.companyName {fill:#0C0C0C;fill-opacity:1;}.icon3 {fill:#0C0C0C;fill-opacity:1;}.icon3-str {stroke:#0C0C0C;stroke-opacity:1;}</style><g opacity="1" transform="rotate(0 182.6476 179.0196)">
<svg width="396.2367" height="80" x="182.6476" y="179.0196" version="1.1" preserveAspectRatio="none" viewBox="0.8 -23.84 164.23999999999998 33.16">
  <g transform="matrix(1 0 0 1 0 0)" class="companyName"><path id="id-D6z1nYkh9" d="M17.32-8.08L17.32-8.08Q17.28-6.88 17.24-6.18Q17.20-5.48 17.14-5.02Q17.08-4.56 16.94-4.20Q16.80-3.84 16.56-3.32L16.56-3.32Q15.72-1.40 13.96-0.36Q12.20 0.68 9.48 0.68L9.48 0.68Q8.52 0.68 7.96 0.68Q7.40 0.68 6.74 0.48Q6.08 0.28 5.08-0.22Q4.08-0.72 2.24-1.68L2.24-1.68Q0.80-2.44 0.80-3.60L0.80-3.60Q0.80-4.32 1.28-4.90Q1.76-5.48 2.52-5.56L2.52-5.56Q5.40-4.64 6.48-3.64L6.48-3.64Q7.92-3 9.96-3L9.96-3Q11.68-3 12.72-4L12.72-4Q12.88-4.44 13.06-5.24Q13.24-6.04 13.24-7.16L13.24-7.16Q13.24-8.04 12.72-8.62Q12.20-9.20 11.40-9.64Q10.60-10.08 9.62-10.44Q8.64-10.80 7.76-11.20L7.76-11.20Q7.08-11.48 6.40-11.84Q5.72-12.20 5.04-12.76L5.04-12.76Q3.32-15.68 3.32-16.88L3.32-16.88Q3.32-19.88 6.88-22.60L6.88-22.60Q10.20-23.84 11.40-23.84L11.40-23.84Q11.84-23.84 12.56-23.52Q13.28-23.20 13.98-22.72Q14.68-22.24 15.18-21.66Q15.68-21.08 15.68-20.52L15.68-20.52Q15.68-19.84 15.14-19.34Q14.60-18.84 13.76-18.84L13.76-18.84Q13.68-18.84 13.32-19.08Q12.96-19.32 12.46-19.60Q11.96-19.88 11.46-20.12Q10.96-20.36 10.64-20.36L10.64-20.36Q9.96-20.36 9.34-20.04Q8.72-19.72 8.24-19.24Q7.76-18.76 7.48-18.18Q7.20-17.60 7.20-17.12L7.20-17.12Q7.20-16.20 7.76-15.48Q8.32-14.76 9.12-14.32L9.12-14.32L11.64-13.44Q12.60-13.08 13.52-12.52Q14.44-11.96 15.20-11.26Q15.96-10.56 16.52-9.74Q17.08-8.92 17.32-8.08Z M36.92-8.20L36.92-8.20L36.92-7.96Q36.88-7.32 36.78-6.72Q36.68-6.12 36.40-5.52L36.40-5.52L35.60-3.80Q35.28-3.36 34.60-2.84Q33.92-2.32 33.12-1.88Q32.32-1.44 31.52-1.14Q30.72-0.84 30.20-0.84L30.20-0.84L29.80-0.84Q29.60-0.84 29.26-0.78Q28.92-0.72 28.58-0.64Q28.24-0.56 27.96-0.48Q27.68-0.40 27.56-0.40L27.56-0.40Q27.56 0.20 27.54 0.40Q27.52 0.60 27.50 0.98Q27.48 1.36 27.46 2.24Q27.44 3.12 27.44 5.12L27.44 5.12Q27.44 5.68 27.32 6.44Q27.20 7.20 27 8.24L27 8.24Q26.48 8.68 25.64 8.68L25.64 8.68Q24.84 8.68 24.44 8.32Q24.04 7.96 23.90 7.44Q23.76 6.92 23.78 6.42Q23.80 5.92 23.80 5.60L23.80 5.60Q23.80 4.84 23.88 4.38Q23.96 3.92 23.96 3.12L23.96 3.12Q23.96 2.68 23.94 2.18Q23.92 1.68 23.92 1.08L23.92 1.08Q23.92 0.16 23.98-0.64Q24.04-1.44 24.12-2.20L24.12-2.20Q23.96-3 23.96-4.96L23.96-4.96Q23.96-6.72 24.16-7.84L24.16-7.84Q23.92-9.12 23.82-10.06Q23.72-11 23.72-11.56L23.72-11.56Q23.72-12.48 24.16-12.92Q24.60-13.36 25.64-13.36L25.64-13.36Q26.36-13.36 26.76-13.08L26.76-13.08L27.16-12.60Q27.88-13 28.92-13.26Q29.96-13.52 31.12-13.52L31.12-13.52Q33.84-13.52 35.34-12.22Q36.84-10.92 36.92-8.20ZM33.20-7.20L33.20-7.20Q33.32-7.84 33.32-8.28L33.32-8.28Q33.32-9 32.82-9.50Q32.32-10 31.28-10L31.28-10L30.88-10Q30.08-10 29.84-10.08L29.84-10.08Q28.84-9.96 27.64-8.88L27.64-8.88Q27.64-8.80 27.68-8.40Q27.72-8 27.72-7.28L27.72-7.28Q27.72-6.36 27.60-5.72Q27.48-5.08 27.48-4.56L27.48-4.56Q27.48-4.36 27.48-4.12Q27.48-3.88 27.60-3.88L27.60-3.88Q27.72-3.88 28.04-3.94Q28.36-4 28.68-4.10Q29-4.20 29.30-4.26Q29.60-4.32 29.68-4.32L29.68-4.32Q29.92-4.32 30.26-4.44Q30.60-4.56 30.94-4.68Q31.28-4.80 31.54-4.92Q31.80-5.04 31.92-5.04L31.92-5.04Q32.88-5.80 33.20-7.20Z M55.72-1.60L55.72-1.60Q54.44-0.32 52.84 0.58Q51.24 1.48 49.60 1.48L49.60 1.48Q48.12 1.48 45.80 1L45.80 1Q45.00 0.48 44.20-0.26Q43.40-1 42.76-1.90Q42.12-2.80 41.72-3.86Q41.32-4.92 41.32-6.04L41.32-6.04Q41.32-6.36 41.36-6.90Q41.40-7.44 41.46-7.98Q41.52-8.52 41.56-8.92Q41.60-9.32 41.60-9.32L41.60-9.32Q42.40-10.60 43.30-11.86Q44.20-13.12 45.84-14.08L45.84-14.08Q48.44-14.64 49.60-14.64L49.60-14.64Q50.20-14.64 50.64-14.58Q51.08-14.52 51.50-14.34Q51.92-14.16 52.34-13.80Q52.76-13.44 53.32-12.88L53.32-12.88Q53.96-12.20 54.34-11.96Q54.72-11.72 54.72-11.52L54.72-11.52Q54.72-7.84 52.44-6.52L52.44-6.52Q51.44-6.16 49.84-5.74Q48.24-5.32 45.48-4.96L45.48-4.96Q46.04-3.44 46.96-2.68Q47.88-1.92 49.04-1.92L49.04-1.92Q50.76-1.92 53.36-3.96L53.36-3.96Q53.76-4.32 54.36-4.32L54.36-4.32Q55.00-4.32 55.50-3.84Q56-3.36 56-2.64L56-2.64Q56-2.12 55.72-1.60ZM51.20-10.16L51.20-10.16Q50.44-11.40 49.40-11.40L49.40-11.40Q48.96-11.40 48.44-11.28Q47.92-11.16 47.38-10.94Q46.84-10.72 46.38-10.40Q45.92-10.08 45.64-9.64L45.64-9.64L45.24-8.44Q46.60-8.56 47.64-8.64Q48.68-8.72 49.44-8.88Q50.20-9.04 50.64-9.32Q51.08-9.60 51.20-10.16Z M75.32-4.72L75.32-4.72Q76.04-4.24 76.04-3.56L76.04-3.56Q76.04-3.20 75.84-2.82Q75.64-2.44 75.32-2.14Q75.00-1.84 74.64-1.64Q74.28-1.44 73.92-1.44L73.92-1.44Q73.60-1.56 73.16-1.86Q72.72-2.16 72.28-2.54Q71.84-2.92 71.46-3.40Q71.08-3.88 70.88-4.36L70.88-4.36L70.60-3.68Q69.84-2.24 68.20-0.96L68.20-0.96Q66.20-0.60 65.88-0.60L65.88-0.60Q65.12-0.60 64.04-0.84L64.04-0.84L61.84-2.40Q60.40-3.76 60.40-6.12L60.40-6.12Q60.40-6.96 60.66-7.98Q60.92-9 61.42-10.04Q61.92-11.08 62.64-12.08Q63.36-13.08 64.32-13.88L64.32-13.88Q65.48-14.32 66.56-14.62Q67.64-14.92 68.20-15L68.20-15Q68.96-15.84 70.00-15.84L70.00-15.84Q70.60-15.84 71.06-15.26Q71.52-14.68 71.86-13.80Q72.20-12.92 72.40-11.86Q72.60-10.80 72.68-9.84L72.68-9.84L73.20-7.72Q73.44-6.72 73.98-6Q74.52-5.28 75.32-4.72ZM69.24-9.16L69.24-9.16Q69.16-9.20 68.64-11.68L68.64-11.68Q68.44-11.68 68.04-11.68Q67.64-11.68 67.10-11.46Q66.56-11.24 65.94-10.70Q65.32-10.16 64.76-9.08L64.76-9.08Q63.92-7.52 63.92-5.96L63.92-5.96Q64.60-4.64 66.04-3.88L66.04-3.88Q66.48-4 66.78-4.16Q67.08-4.32 67.32-4.60Q67.56-4.88 67.78-5.30Q68.00-5.72 68.28-6.36L68.28-6.36Q68.80-7.28 69.02-7.98Q69.24-8.68 69.24-9.16Z M92.28-3.48L92.28-3.48Q92.32-3.32 92.34-3.20Q92.36-3.08 92.36-2.92L92.36-2.92Q92.36-2.08 91.84-1.56Q91.32-1.04 90.64-1.04L90.64-1.04Q90.04-1.04 89.56-1.56Q89.08-2.08 88.54-2.88Q88.00-3.68 87.32-4.64Q86.64-5.60 85.64-6.48L85.64-6.48Q85.48-6.64 85.04-6.94Q84.60-7.24 83.92-7.72L83.92-7.72L83.68-7.60Q83.60-7.32 83.56-6.92L83.56-6.92Q83.44-6.24 83.44-5.12L83.44-5.12Q83.44-4.80 83.52-4.40L83.52-4.40Q83.52-4.32 83.50-4.24Q83.48-4.16 83.48-4.04L83.48-4.04Q83.48-3.68 83.50-3.10Q83.52-2.52 83.56-1.98Q83.60-1.44 83.62-1.04Q83.64-0.64 83.64-0.68L83.64-0.68Q83.64 0 83.04 0.36Q82.44 0.72 81.72 0.72L81.72 0.72Q80.68 0.72 80.34-0.28Q80.00-1.28 80.00-3.68L80.00-3.68Q80.00-5.28 80.12-6.58Q80.24-7.88 80.24-8.88L80.24-8.88L80.24-9.56Q80.24-9.76 80.30-10.24Q80.36-10.72 80.42-11.32Q80.48-11.92 80.54-12.54Q80.60-13.16 80.60-13.60L80.60-13.60L80.60-14.04Q80.64-14.16 80.72-15.12Q80.80-16.08 81.00-17.34Q81.20-18.60 81.50-19.94Q81.80-21.28 82.24-22.20L82.24-22.20Q82.52-22.80 83.48-22.80L83.48-22.80Q85.28-22.80 85.28-21.40L85.28-21.40Q85.28-21.08 85.12-20.20Q84.96-19.32 84.78-18.30Q84.60-17.28 84.46-16.32Q84.32-15.36 84.32-14.88L84.32-14.88Q84.24-14.76 83.96-11.88L83.96-11.88Q84.56-12.28 85.06-12.70Q85.56-13.12 86.12-13.56Q86.68-14 87.44-14.50Q88.20-15 89.32-15.64L89.32-15.64Q89.40-15.64 89.44-15.66Q89.48-15.68 89.56-15.68L89.56-15.68Q90.16-15.68 90.76-15.12Q91.36-14.56 91.36-13.84L91.36-13.84Q91.36-13.40 91.32-13.22Q91.28-13.04 90.98-12.80Q90.68-12.56 90.00-12.16Q89.32-11.76 88.08-10.92L88.08-10.92Q88.00-10.72 86.76-10L86.76-10Q87.24-9.60 87.38-9.48Q87.52-9.36 87.76-9.10Q88.00-8.84 88.58-8.22Q89.16-7.60 90.56-6.20L90.56-6.20Q91.32-5.16 92.28-3.48Z M110.76-2.80L111.24-2.80Q112.56-2.12 112.56-0.84L112.56-0.84Q112.56 0 112.14 0.36Q111.72 0.72 110.94 0.86Q110.16 1 109.00 1.02Q107.84 1.04 106.40 1.12L106.40 1.12Q105.92 0.96 102.88 0.80L102.88 0.80Q102.44 0.84 102.04 0.86Q101.64 0.88 101.28 0.88L101.28 0.88Q99.12 0.88 98.32 0.24L98.32 0.24Q98.12-1.36 98.02-2.72Q97.92-4.08 97.92-5.20L97.92-5.20Q97.92-6.96 98.06-8.26Q98.20-9.56 98.20-10.60L98.20-10.60Q98.20-11.88 98.08-12.60L98.08-12.60L98.32-16.80Q98.48-18.32 98.70-19.40Q98.92-20.48 99.24-21.04L99.24-21.04Q99.48-21.36 101.64-21.84L101.64-21.84L104.20-22.40Q104.44-22.44 105.20-22.52Q105.96-22.60 106.78-22.68Q107.60-22.76 108.24-22.80Q108.88-22.84 108.84-22.84L108.84-22.84L109.00-22.84Q109.44-22.84 109.90-22.24Q110.36-21.64 110.36-20.84L110.36-20.84Q110.36-20.44 110.34-20.12Q110.32-19.80 110.08-19.58Q109.84-19.36 109.28-19.24Q108.72-19.12 107.64-19.08L107.64-19.08Q105.88-19 105.24-18.72L105.24-18.72L105.04-18.72Q104.00-18.72 102.44-18.24L102.44-18.24Q102.28-18.04 102.20-17.54Q102.12-17.04 102.08-16.50Q102.04-15.96 102.02-15.58Q102.00-15.20 102.00-15.32L102.00-15.32Q101.96-15.12 101.94-14.92Q101.92-14.72 101.92-14.40L101.92-14.40Q101.92-14.12 101.94-13.78Q101.96-13.44 102.00-13.04L102.00-13.04Q103.24-13.16 104.02-13.30Q104.80-13.44 105.24-13.44L105.24-13.44Q106.08-13.44 106.88-13.48Q107.68-13.52 108.30-13.38Q108.92-13.24 109.28-12.82Q109.64-12.40 109.64-11.48L109.64-11.48Q109.64-10.44 108.98-10.12Q108.32-9.80 106.68-9.76L106.68-9.76Q104.76-9.68 104.36-9.60L104.36-9.60Q104.12-9.60 103.86-9.62Q103.60-9.64 103.28-9.64L103.28-9.64Q103.08-9.64 102.82-9.66Q102.56-9.68 102.32-9.66Q102.08-9.64 101.90-9.50Q101.72-9.36 101.72-9L101.72-9Q101.72-8.76 101.74-8.38Q101.76-8 101.76-7.68L101.76-7.68Q101.76-7.20 101.74-6.72Q101.72-6.24 101.70-5.70Q101.68-5.16 101.66-4.48Q101.64-3.80 101.64-2.88L101.64-2.88Q101.88-2.84 102.58-2.80Q103.28-2.76 104.06-2.72Q104.84-2.68 105.56-2.62Q106.28-2.56 106.52-2.52L106.52-2.52Q106.56-2.52 107.08-2.56Q107.60-2.60 108.60-2.68L108.60-2.68Q109.96-2.80 110.76-2.80L110.76-2.80Z M130.80-4.72L130.80-4.72Q131.52-4.24 131.52-3.56L131.52-3.56Q131.52-3.20 131.32-2.82Q131.12-2.44 130.80-2.14Q130.48-1.84 130.12-1.64Q129.76-1.44 129.40-1.44L129.40-1.44Q129.08-1.56 128.64-1.86Q128.20-2.16 127.76-2.54Q127.32-2.92 126.94-3.40Q126.56-3.88 126.36-4.36L126.36-4.36L126.08-3.68Q125.32-2.24 123.68-0.96L123.68-0.96Q121.68-0.60 121.36-0.60L121.36-0.60Q120.60-0.60 119.52-0.84L119.52-0.84L117.32-2.40Q115.88-3.76 115.88-6.12L115.88-6.12Q115.88-6.96 116.14-7.98Q116.40-9 116.90-10.04Q117.40-11.08 118.12-12.08Q118.84-13.08 119.80-13.88L119.80-13.88Q120.96-14.32 122.04-14.62Q123.12-14.92 123.68-15L123.68-15Q124.44-15.84 125.48-15.84L125.48-15.84Q126.08-15.84 126.54-15.26Q127.00-14.68 127.34-13.80Q127.68-12.92 127.88-11.86Q128.08-10.80 128.16-9.84L128.16-9.84L128.68-7.72Q128.92-6.72 129.46-6Q130-5.28 130.80-4.72ZM124.72-9.16L124.72-9.16Q124.64-9.20 124.12-11.68L124.12-11.68Q123.92-11.68 123.52-11.68Q123.12-11.68 122.58-11.46Q122.04-11.24 121.42-10.70Q120.80-10.16 120.24-9.08L120.24-9.08Q119.40-7.52 119.40-5.96L119.40-5.96Q120.08-4.64 121.52-3.88L121.52-3.88Q121.96-4 122.26-4.16Q122.56-4.32 122.80-4.60Q123.04-4.88 123.26-5.30Q123.48-5.72 123.76-6.36L123.76-6.36Q124.28-7.28 124.50-7.98Q124.72-8.68 124.72-9.16Z M145.72-4.60L145.72-4.60Q145.60-3.36 144.90-2.34Q144.20-1.32 143.48-0.28L143.48-0.28Q143.04 0.08 142.22 0.34Q141.40 0.60 140.60 0.76Q139.80 0.92 139.22 1Q138.64 1.08 138.72 1.08L138.72 1.08Q138.32 1.08 137.70 0.94Q137.08 0.80 136.50 0.66Q135.92 0.52 135.54 0.38Q135.16 0.24 135.20 0.24L135.20 0.24Q134.84 0.20 134.28-0.02Q133.72-0.24 133.22-0.54Q132.72-0.84 132.34-1.18Q131.96-1.52 131.96-1.84L131.96-1.84Q131.96-2.16 132.12-2.50Q132.28-2.84 132.56-3.14Q132.84-3.44 133.14-3.62Q133.44-3.80 133.76-3.80L133.76-3.80L136.52-2.76Q137.28-2.52 138.02-2.42Q138.76-2.32 139.48-2.32L139.48-2.32Q140.16-2.32 140.70-2.58Q141.24-2.84 141.52-3.20L141.52-3.20L142.12-4.40Q142.04-5.12 141.54-5.52Q141.04-5.92 140.30-6.20Q139.56-6.48 138.72-6.72Q137.88-6.96 137.16-7.36L137.16-7.36L135.44-8.44Q134.60-9.52 134.56-11.76L134.56-11.76Q134.80-13.16 135.76-14L135.76-14Q135.80-14.04 136.28-14.38Q136.76-14.72 137.76-15.36L137.76-15.36Q137.92-15.36 138.78-15.44Q139.64-15.52 141.16-15.68L141.16-15.68Q141.84-15.68 144.48-14.72L144.48-14.72Q145-14.20 145-13.28L145-13.28Q145-12.56 144.66-12.06Q144.32-11.56 143.68-11.56L143.68-11.56Q143-11.56 142.18-11.90Q141.36-12.24 140.64-12.24L140.64-12.24Q139.64-12.24 138.82-12.06Q138-11.88 138-11.24L138-11.24Q138-10.32 138.80-10.12L138.80-10.12Q144.92-8.76 145.72-4.60Z M165.04-11.76L165.04-11.76Q165-10.88 164.96-10.52Q164.92-10.16 164.74-9.74Q164.56-9.32 164.16-8.52Q163.76-7.72 163.04-5.96L163.04-5.96Q162.72-4.08 161.44-2.24L161.44-2.24Q160.80-0.28 160 0.56L160 0.56Q159.88 0.92 159.44 1.68Q159 2.44 158.50 3.30Q158 4.16 157.54 4.98Q157.08 5.80 156.88 6.24L156.88 6.24Q156.80 6.44 156.52 6.94Q156.24 7.44 155.86 7.96Q155.48 8.48 154.98 8.90Q154.48 9.32 154 9.32L154 9.32Q153.28 9.32 152.66 8.86Q152.04 8.40 152.04 7.76L152.04 7.76Q152.04 7.44 152.32 6.94Q152.60 6.44 153 5.86Q153.40 5.28 153.84 4.66Q154.28 4.04 154.60 3.52L154.60 3.52Q154.72 3.20 155.04 2.56Q155.36 1.92 155.74 1.22Q156.12 0.52 156.46-0.14Q156.80-0.80 156.92-1.16L156.92-1.16Q156.80-1.24 156.48-1.58Q156.16-1.92 155.78-2.30Q155.40-2.68 155-3.04Q154.60-3.40 154.28-3.56L154.28-3.56Q153.84-4.20 153.52-4.56Q153.20-4.92 152.94-5.16Q152.68-5.40 152.40-5.64Q152.12-5.88 151.78-6.32Q151.44-6.76 150.94-7.48Q150.44-8.20 149.76-9.40L149.76-9.40Q149.72-9.52 149.72-9.76L149.72-9.76Q149.72-10.56 150.30-11.20Q150.88-11.84 151.52-11.84L151.52-11.84Q151.96-11.84 152.52-11.42Q153.08-11 153.80-9.92L153.80-9.92Q154.56-8.72 154.98-8.16Q155.40-7.60 155.70-7.26Q156-6.92 156.34-6.62Q156.68-6.32 157.32-5.64L157.32-5.64Q157.80-5.40 158.60-4.48L158.60-4.48L160.04-8.36Q160.48-9.40 160.94-10.50Q161.40-11.60 161.56-12.60L161.56-12.60Q162.44-13.20 163.32-13.20L163.32-13.20Q164.80-13.20 165.04-11.76Z"/></g>
</svg>
</g><g opacity="1" transform="rotate(0 154.7564 169.0196)">
<svg width="7.8912" height="100" x="154.7564" y="169.0196" version="1.1" preserveAspectRatio="none" viewBox="6.48 -25.44 2.3200000000000003 29.4">
  <g transform="matrix(1 0 0 1 0 0)" class="icon3"><path id="id-lXek8z7fT1" d="M8.68-12.24L8.68-12.24Q8.68-12 8.74-11Q8.80-10 8.80-8.16L8.80-8.16Q8.80-6.80 8.60-6.32L8.60-6.32Q8.68-5.96 8.68-5.58Q8.68-5.20 8.68-4.76L8.68-4.76Q8.68-3.84 8.58-2.86Q8.48-1.88 8.44-0.96L8.44-0.96Q8.48-0.48 8.48-0.02Q8.48 0.44 8.48 0.88L8.48 0.88Q8.48 1.36 8.48 1.90Q8.48 2.44 8.42 2.90Q8.36 3.36 8.18 3.66Q8 3.96 7.64 3.96L7.64 3.96Q7 3.96 6.84 3.72L6.84 3.72Q6.48 2.24 6.48-0.04L6.48-0.04Q6.48-1.40 6.66-3.12Q6.84-4.84 6.84-6.56L6.84-6.56Q6.84-8.08 6.60-9.52L6.60-9.52Q6.60-9.60 6.64-10.30Q6.68-11 6.72-11.88Q6.76-12.76 6.84-13.54Q6.92-14.32 7.04-14.56L7.04-14.56Q6.84-15.36 6.84-17.48L6.84-17.48Q6.84-18.12 6.84-18.82Q6.84-19.52 6.86-20.40Q6.88-21.28 6.98-22.42Q7.08-23.56 7.28-25.16L7.28-25.16Q7.32-25.44 7.84-25.44L7.84-25.44Q8.60-25.44 8.70-25.04Q8.80-24.64 8.80-23.72L8.80-23.72Q8.80-23.12 8.76-22.32Q8.72-21.52 8.64-20.48L8.64-20.48Q8.68-19.20 8.68-17.14Q8.68-15.08 8.68-12.24Z"/></g>
</svg>
</g></svg></svg>