<svg version="1.1" preserveAspectRatio="none" xmlns="http://www.w3.org/2000/svg" width="500" height="500" viewBox="0 0 500 500"><rect width="100%" height="100%" fill="#FFF0F0" fill-opacity="1"/><svg viewBox="134.6871 225.1355 389.1494 225.5708" width="333" height="193.02374974752627" x="83.5px" y="153.4881px" xmlns="http://www.w3.org/2000/svg" xmlns:xlink="http://www.w3.org/1999/xlink" preserveAspectRatio="none"><defs></defs><style>.aaPBVVfuKfillColor {fill:#E9E9E9;fill-opacity:0;}.aaPBVVfuKstrokeColor-str {stroke:#A0A0A0;stroke-opacity:0.2;}.companyName {fill:#282828;fill-opacity:1;}.icon3-str {stroke:#FFF4F4;stroke-opacity:1;}</style><g opacity="1" transform="rotate(0 216.468 225.1355)">
<svg width="225.5877" height="225.5708" x="216.468" y="225.1355" version="1.1" preserveAspectRatio="none" viewBox="0 0 225.5877 225.5708">
  <defs><rect x="2.255708" y="2.255708" width="221.07628400000002" height="221.059384" rx="0%" ry="0%" id="id-aPBVVfuK1681103504399"></rect></defs><use class="aaPBVVfuKfillColor aaPBVVfuKstrokeColor-str" style="stroke-width:4.511416;" xlink:href="#id-aPBVVfuK1681103504399"></use>
</svg>
</g><g opacity="1" transform="rotate(0 134.6871 302.9209)">
<svg width="389.1494" height="70" x="134.6871" y="302.9209" version="1.1" preserveAspectRatio="none" viewBox="1.48 -28.48 213.92000000000002 38.480000000000004">
  <g transform="matrix(1 0 0 1 0 0)" class="companyName"><path id="id-D6z1nYkh9" d="M4.20-7.08L1.48-7.08Q1.56-5.36 2.38-3.96Q3.20-2.56 4.62-1.58Q6.04-0.60 7.96-0.06Q9.88 0.48 12.16 0.48L12.16 0.48Q14.48 0.48 16.34-0.08Q18.20-0.64 19.52-1.68Q20.84-2.72 21.56-4.20Q22.28-5.68 22.28-7.48L22.28-7.48Q22.28-9.96 21.04-11.54Q19.80-13.12 17.94-14.18Q16.08-15.24 13.90-15.96Q11.72-16.68 9.86-17.48Q8-18.28 6.76-19.32Q5.52-20.36 5.52-22.08L5.52-22.08Q5.52-23.04 5.94-23.88Q6.36-24.72 7.18-25.34Q8-25.96 9.20-26.34Q10.40-26.72 11.96-26.72L11.96-26.72Q14.56-26.72 16.38-25.62Q18.20-24.52 18.52-22.16L18.52-22.16L21.24-22.16Q21-23.64 20.16-24.82Q19.32-26 18.04-26.82Q16.76-27.64 15.14-28.06Q13.52-28.48 11.76-28.48L11.76-28.48Q9.92-28.48 8.26-28Q6.60-27.52 5.34-26.60Q4.08-25.68 3.34-24.28Q2.60-22.88 2.60-21.08L2.60-21.08Q2.60-18.72 3.80-17.28Q5-15.84 6.82-14.88Q8.64-13.92 10.76-13.24Q12.88-12.56 14.70-11.70Q16.52-10.84 17.72-9.60Q18.92-8.36 18.92-6.28L18.92-6.28Q18.92-3.68 17.02-2.48Q15.12-1.28 11.96-1.28L11.96-1.28Q9.44-1.28 7.92-1.94Q6.40-2.60 5.60-3.52Q4.80-4.44 4.52-5.42Q4.24-6.40 4.20-7.08L4.20-7.08Z M30.20-20L30.20 10L33.60 10L33.60-3.28L33.76-3.28Q34.16-2.24 34.82-1.52Q35.48-0.80 36.32-0.36Q37.16 0.08 38.10 0.28Q39.04 0.48 40 0.48L40 0.48Q42 0.48 43.68-0.26Q45.36-1 46.58-2.36Q47.80-3.72 48.48-5.66Q49.16-7.60 49.16-9.96L49.16-9.96Q49.16-12.36 48.48-14.28Q47.80-16.20 46.58-17.58Q45.36-18.96 43.68-19.70Q42-20.44 40-20.44L40-20.44Q35.24-20.44 33.76-16.76L33.76-16.76L33.60-16.76L33.60-20L30.20-20ZM33.60-8.52L33.60-12Q33.60-13.32 34.02-14.50Q34.44-15.68 35.20-16.54Q35.96-17.40 36.98-17.90Q38-18.40 39.16-18.40L39.16-18.40Q40.40-18.40 41.54-17.94Q42.68-17.48 43.52-16.48Q44.36-15.48 44.86-13.88Q45.36-12.28 45.36-10.04L45.36-10.04Q45.36-7.76 44.86-6.16Q44.36-4.56 43.50-3.54Q42.64-2.52 41.52-2.06Q40.40-1.60 39.16-1.60L39.16-1.60Q38.04-1.60 37.04-2.06Q36.04-2.52 35.28-3.42Q34.52-4.32 34.06-5.60Q33.60-6.88 33.60-8.52L33.60-8.52Z M58.92-9.12L74.12-9.12L74.12-9.96Q74.12-12.64 73.36-14.60Q72.60-16.56 71.30-17.84Q70-19.12 68.28-19.76Q66.56-20.40 64.64-20.40L64.64-20.40Q62.60-20.40 60.88-19.70Q59.16-19 57.88-17.66Q56.60-16.32 55.88-14.42Q55.16-12.52 55.16-10.12L55.16-10.12Q55.16-8.12 55.78-6.22Q56.40-4.32 57.66-2.82Q58.92-1.32 60.86-0.42Q62.80 0.48 65.44 0.48L65.44 0.48Q68 0.48 70.16-0.42Q72.32-1.32 73.92-3L73.92-3L72.64-4.28Q71.80-3.56 71.06-2.96Q70.32-2.36 69.56-1.96Q68.80-1.56 67.98-1.34Q67.16-1.12 66.16-1.12L66.16-1.12Q65.04-1.12 63.78-1.46Q62.52-1.80 61.44-2.68Q60.36-3.56 59.64-5.12Q58.92-6.68 58.92-9.12L58.92-9.12ZM70.64-10.72L58.92-10.72Q58.92-12.32 59.26-13.82Q59.60-15.32 60.30-16.48Q61-17.64 62.08-18.34Q63.16-19.04 64.64-19.04L64.64-19.04Q67.48-19.04 69.06-16.82Q70.64-14.60 70.64-10.72L70.64-10.72Z M88.68-20.44L88.68-20.44Q91.60-20.44 93.20-19.62Q94.80-18.80 95.54-17.48Q96.28-16.16 96.40-14.44Q96.52-12.72 96.52-10.92L96.52-10.92L96.52 0L93.28 0L93.28-1.96Q92.12-0.84 90.32-0.18Q88.52 0.48 86.72 0.48L86.72 0.48Q85 0.48 83.68-0.12Q82.36-0.72 81.48-1.68Q80.60-2.64 80.16-3.84Q79.72-5.04 79.72-6.28L79.72-6.28Q79.72-7.56 80.20-8.84Q80.68-10.12 81.64-11.14Q82.60-12.16 84-12.80Q85.40-13.44 87.20-13.44L87.20-13.44Q89-13.44 90.62-12.74Q92.24-12.04 93.28-10.76L93.28-10.76L93.28-12.48Q93.28-15.76 92.30-17.36Q91.32-18.96 88.72-18.96L88.72-18.96Q87.60-18.96 86.76-18.68Q85.92-18.40 85.26-17.90Q84.60-17.40 84.04-16.66Q83.48-15.92 82.92-15L82.92-15L80.84-17.08Q81.40-17.68 82.02-18.28Q82.64-18.88 83.54-19.36Q84.44-19.84 85.68-20.14Q86.92-20.44 88.68-20.44ZM93.28-4.84L93.28-7.92Q93.08-8.40 92.70-9.04Q92.32-9.68 91.72-10.28Q91.12-10.88 90.28-11.30Q89.44-11.72 88.28-11.72L88.28-11.72Q87.12-11.72 86.16-11.26Q85.20-10.80 84.54-10.06Q83.88-9.32 83.52-8.32Q83.16-7.32 83.16-6.24L83.16-6.24Q83.16-4.96 83.62-4.02Q84.08-3.08 84.80-2.42Q85.52-1.76 86.40-1.44Q87.28-1.12 88.08-1.12L88.08-1.12Q88.84-1.12 89.62-1.40Q90.40-1.68 91.10-2.18Q91.80-2.68 92.36-3.36Q92.92-4.04 93.28-4.84L93.28-4.84Z M108.32-10.08L108.32-28L104.92-28L104.92 0L108.32 0L108.32-7.52L110.64-9.88L118.68 0L123.16 0L113.12-12.32L120.76-20L118.16-20L108.32-10.08Z M148.04-28L129.96-28L129.96 0L148.04 0L148.04-2.20L133.60-2.20L133.60-13.92L146-13.92L146-15.76L133.60-15.76L133.60-25.80L148.04-25.80L148.04-28Z M161.80-20.44L161.80-20.44Q164.72-20.44 166.32-19.62Q167.92-18.80 168.66-17.48Q169.40-16.16 169.52-14.44Q169.64-12.72 169.64-10.92L169.64-10.92L169.64 0L166.40 0L166.40-1.96Q165.24-0.84 163.44-0.18Q161.64 0.48 159.84 0.48L159.84 0.48Q158.12 0.48 156.80-0.12Q155.48-0.72 154.60-1.68Q153.72-2.64 153.28-3.84Q152.84-5.04 152.84-6.28L152.84-6.28Q152.84-7.56 153.32-8.84Q153.80-10.12 154.76-11.14Q155.72-12.16 157.12-12.80Q158.52-13.44 160.32-13.44L160.32-13.44Q162.12-13.44 163.74-12.74Q165.36-12.04 166.40-10.76L166.40-10.76L166.40-12.48Q166.40-15.76 165.42-17.36Q164.44-18.96 161.84-18.96L161.84-18.96Q160.72-18.96 159.88-18.68Q159.04-18.40 158.38-17.90Q157.72-17.40 157.16-16.66Q156.60-15.92 156.04-15L156.04-15L153.96-17.08Q154.52-17.68 155.14-18.28Q155.76-18.88 156.66-19.36Q157.56-19.84 158.80-20.14Q160.04-20.44 161.80-20.44ZM166.40-4.84L166.40-7.92Q166.20-8.40 165.82-9.04Q165.44-9.68 164.84-10.28Q164.24-10.88 163.40-11.30Q162.56-11.72 161.40-11.72L161.40-11.72Q160.24-11.72 159.28-11.26Q158.32-10.80 157.66-10.06Q157-9.32 156.64-8.32Q156.28-7.32 156.28-6.24L156.28-6.24Q156.28-4.96 156.74-4.02Q157.20-3.08 157.92-2.42Q158.64-1.76 159.52-1.44Q160.40-1.12 161.20-1.12L161.20-1.12Q161.96-1.12 162.74-1.40Q163.52-1.68 164.22-2.18Q164.92-2.68 165.48-3.36Q166.04-4.04 166.40-4.84L166.40-4.84Z M188.52-15.44L190.80-15.44Q190.80-16.52 190.24-17.44Q189.68-18.36 188.70-19.02Q187.72-19.68 186.42-20.06Q185.12-20.44 183.64-20.44L183.64-20.44Q182.24-20.44 181.02-20.08Q179.80-19.72 178.90-19Q178-18.28 177.48-17.22Q176.96-16.16 176.96-14.76L176.96-14.76Q176.96-12.84 177.84-11.72Q178.72-10.60 180.04-9.92Q181.36-9.24 182.90-8.82Q184.44-8.40 185.76-7.90Q187.08-7.40 187.96-6.64Q188.84-5.88 188.84-4.56L188.84-4.56Q188.84-4 188.66-3.40Q188.48-2.80 188-2.30Q187.52-1.80 186.68-1.46Q185.84-1.12 184.56-1.12L184.56-1.12Q182.96-1.12 181.86-1.62Q180.76-2.12 180.06-2.82Q179.36-3.52 179.06-4.24Q178.76-4.96 178.76-5.44L178.76-5.44L176.16-5.44Q176.16-4.32 176.68-3.26Q177.20-2.20 178.26-1.36Q179.32-0.52 180.86-0.02Q182.40 0.48 184.44 0.48L184.44 0.48Q188.12 0.48 189.98-1.14Q191.84-2.76 191.84-5.40L191.84-5.40Q191.84-7.32 190.94-8.48Q190.04-9.64 188.68-10.34Q187.32-11.04 185.74-11.48Q184.16-11.92 182.80-12.40Q181.44-12.88 180.54-13.56Q179.64-14.24 179.64-15.48L179.64-15.48Q179.64-16 179.84-16.58Q180.04-17.16 180.52-17.66Q181-18.16 181.80-18.50Q182.60-18.84 183.80-18.84L183.80-18.84Q185-18.84 185.88-18.50Q186.76-18.16 187.36-17.66Q187.96-17.16 188.24-16.56Q188.52-15.96 188.52-15.44L188.52-15.44Z M207.16-4.68L207-4.68L200.08-20L196.44-20L205.40-0.24L203.28 4.96Q202.92 5.88 202.34 6.44Q201.76 7 201 7L201 7Q200.28 7 199.62 6.58Q198.96 6.16 198.60 5.36L198.60 5.36L196.84 8.68Q197.60 9.36 198.52 9.68Q199.44 10 200.24 10L200.24 10Q201.36 10 202.20 9.44Q203.04 8.88 203.68 7.98Q204.32 7.08 204.80 5.98Q205.28 4.88 205.72 3.80L205.72 3.80L215.40-20L213.44-20L207.16-4.68Z"/></g>
</svg>
</g></svg></svg>